<?xml version="1.0" encoding="UTF-8"?>
<svg width="163px" height="20px" viewBox="0 0 163 20" version="1.1" xmlns="http://www.w3.org/2000/svg" xmlns:xlink="http://www.w3.org/1999/xlink">
    <!-- Generator: Sketch 51.2 (57519) - http://www.bohemiancoding.com/sketch -->
    <title>Group 4</title>
    <desc>Created with Sketch.</desc>
    <defs/>
    <g id="Page-1" stroke="none" stroke-width="1" fill="none" fill-rule="evenodd">
        <g id="Desktop-HD" transform="translate(-250.000000, -24.000000)" fill="#3F3F4E">
            <g id="Group-3" transform="translate(250.000000, 24.000000)">
                <g id="Group-4">
                    <path d="M47.6760713,7.08646435e-07 L43.2657039,7.08646435e-07 C42.6577885,7.08646435e-07 42.1649756,0.496839007 42.1649756,1.10972011 L42.1649756,5.25050152 L40.7592487,6.66708464 L36.6526376,6.66708464 C36.0447221,6.66708464 35.5519093,7.16392294 35.5519093,7.77680404 L35.5519093,11.9175855 L34.1461823,13.3341686 L30.0395712,13.3341686 C29.9850542,13.3346069 29.9306486,13.3392126 29.8768225,13.3479461 L27.6964859,11.49737 L27.6964859,8.08429401 L29.1015917,6.66708464 L33.208824,6.66708464 C33.5007553,6.66708464 33.7807298,6.55016811 33.9871564,6.34205535 C34.193583,6.1339426 34.3095523,5.85168113 34.3095523,5.55736524 L34.3095523,1.11097261 C34.3097172,0.816273606 34.19367,0.533596943 33.9869746,0.325213244 C33.7802793,0.116829544 33.4998929,-0.000165553174 33.2075816,7.08646443e-07 L28.7972142,7.08646443e-07 C28.5052829,-0.000331663852 28.2251773,0.116266226 28.0185177,0.324144134 C27.8118581,0.532022041 27.6955729,0.814151662 27.6952436,1.1084676 L27.6952436,5.24924902 L26.2895166,6.66583214 L22.1829055,6.66583214 C22.1281825,6.66627234 22.0735706,6.67087796 22.0195356,6.67960969 L19.8398202,4.8290336 L19.8398202,1.1084676 C19.8387922,0.495974461 19.3460022,-1.6814683e-07 18.7384707,7.08646435e-07 L14.3281034,7.08646435e-07 C13.7200873,6.11147345e-07 13.2270968,0.496737719 13.2267539,1.10972011 L13.2267539,5.25050152 L11.8216481,6.66708464 L7.71379465,6.66708464 C7.1060212,6.66743014 6.61340904,7.16406611 6.61306634,7.77680404 L6.61306634,11.9175855 L5.20858175,13.3329161 L1.10072831,13.3329161 C0.492712382,13.3332618 -9.67091539e-08,13.8302792 0,14.4432617 L0,18.8896543 C-9.67091539e-08,19.5026368 0.492712382,19.9996543 1.10072831,20 L5.51109568,20 C5.80313464,20 6.08320337,19.8829976 6.28964783,19.6747493 C6.4960923,19.4665011 6.61198879,19.1840787 6.61182399,18.8896543 L6.61182399,14.7494992 L8.01755094,13.3322898 L12.124162,13.3322898 C12.7320775,13.3322898 13.2248903,12.8354515 13.2248903,12.2225704 L13.2248903,8.0830415 L14.6306173,6.66583214 L18.7372284,6.66583214 C18.7919357,6.66559909 18.8465475,6.66120284 18.9005983,6.65268083 L21.0809349,8.50325692 L21.0809349,11.916333 L19.6752079,13.3329161 L15.5698392,13.3329161 C14.9615807,13.3329161 14.4684897,13.8300347 14.4684897,14.4432617 L14.4684897,18.8896543 C14.4684897,19.5028813 14.9615807,20 15.5698392,20 L19.9802066,20 C20.5884651,20 21.081556,19.5028813 21.081556,18.8896543 L21.081556,14.7494992 L22.4866618,13.3322898 L26.5932729,13.3322898 C26.6479802,13.3320568 26.702592,13.3276605 26.7566428,13.3191385 L28.9369794,15.1697146 L28.9369794,18.8896543 C28.9368146,19.1840787 29.0527111,19.4665011 29.2591555,19.6747493 C29.4656,19.8829976 29.7456687,20 30.0377077,20 L34.4480751,20 C35.056091,19.9996543 35.5488035,19.5026368 35.5488034,18.8896543 L35.5488034,14.7494992 L36.9539091,13.3322898 L41.0611414,13.3322898 C41.3530727,13.3322898 41.6330473,13.2153733 41.8394739,13.0072605 C42.0459005,12.7991478 42.1618697,12.5168863 42.1618697,12.2225704 L42.1618697,8.0830415 L43.5675967,6.66583214 L47.6742078,6.66583214 C48.2821232,6.66583214 48.7749361,6.16899384 48.7749361,5.55611274 L48.7749361,1.10972011 C48.7749369,0.497571959 48.2832589,0.00103707684 47.6760713,7.0864645e-07 Z" id="logo-copy" fill-rule="nonzero"/>
                    <path d="M71.8281947,0.37037037 L71.8281947,19.7476911 L70.0949878,19.7476911 L59.2812837,6.69070742 L59.2812837,19.7476911 L56.0660592,19.7476911 L56.0660592,0.37037037 L57.7741472,0.37037037 L68.6129703,13.3768923 L68.6129703,0.37037037 L71.8281947,0.37037037 Z M86.1383334,16.7199848 L77.7611666,16.7199848 L76.6810521,19.7476911 L73.1518409,19.7476911 L80.7126422,0.37037037 L83.1617389,0.37037037 L90.7602186,19.7476911 L87.2058884,19.7476911 L86.1383334,16.7199848 Z M85.1461353,13.9193564 L81.9560298,4.92454537 L78.7533648,13.9193564 L85.1461353,13.9193564 Z M101.319977,3.36023041 L96.2459513,3.36023041 L96.2459513,19.7476911 L93.0307268,19.7476911 L93.0307268,3.36023041 L87.9567007,3.36023041 L87.9567007,0.37037037 L101.319977,0.37037037 L101.319977,3.36023041 Z M110.229544,11.5476531 L106.5245,11.5476531 L106.5245,19.7476911 L103.296716,19.7476911 L103.296716,0.37037037 L111.912513,0.37037037 C112.934022,0.37037037 113.871786,0.622676711 114.725834,1.12729696 C115.579882,1.63191721 116.255994,2.31524689 116.754189,3.17730648 C117.252384,4.03936608 117.501477,4.9792072 117.501477,5.99685804 C117.501477,6.84630213 117.331926,7.63475945 116.992819,8.36225364 C116.653711,9.08974784 116.184829,9.71000093 115.586158,10.2230315 C114.987487,10.7360621 114.303003,11.1019063 113.532685,11.3205751 L117.90338,19.7476911 L114.411847,19.7476911 L110.229544,11.5476531 Z M106.5245,8.72179377 L111.472931,8.72179377 C112.017178,8.72179377 112.506992,8.61246103 112.942389,8.39379225 C113.377787,8.17512347 113.721075,7.86394565 113.972266,7.46024945 C114.223457,7.05655325 114.34905,6.58137631 114.34905,6.03470437 C114.34905,5.50485311 114.223457,5.03177872 113.972266,4.61546701 C113.721075,4.1991553 113.375693,3.87746472 112.93611,3.6503856 C112.496526,3.42330649 112.008805,3.30976864 111.472931,3.30976864 L106.5245,3.30976864 L106.5245,8.72179377 Z M119.926528,0.37037037 L123.154312,0.37037037 L123.154312,19.7476911 L119.926528,19.7476911 L119.926528,0.37037037 Z M133.475441,20 C132.035281,20 130.733295,19.7119503 129.569445,19.1358421 C128.405595,18.559734 127.490856,17.7586614 126.825201,16.7326002 C126.159546,15.706539 125.826723,14.550135 125.826723,13.2633533 L125.826723,0.37037037 L129.054507,0.37037037 L129.054507,12.6830429 C129.054507,13.5240767 129.24499,14.2725855 129.625963,14.9285918 C130.006936,15.5845982 130.534428,16.0955185 131.208456,16.4613682 C131.882485,16.8272179 132.638138,17.01014 133.475441,17.01014 C134.321116,17.01014 135.08305,16.8272179 135.761264,16.4613682 C136.439479,16.0955185 136.971158,15.5845982 137.356317,14.9285918 C137.741476,14.2725855 137.934053,13.5240767 137.934053,12.6830429 L137.934053,0.37037037 L141.161837,0.37037037 L141.161837,13.2633533 C141.161837,14.5585453 140.829014,15.7170519 140.163359,16.7389079 C139.497704,17.7607639 138.580871,18.559734 137.412835,19.1358421 C136.244798,19.7119503 134.932347,20 133.475441,20 Z M163,0.37037037 L163,19.7476911 L159.797335,19.7476911 L159.797335,7.24578692 L153.26641,17.6409121 L146.823402,7.32147958 L146.823402,19.7476911 L143.608177,19.7476911 L143.608177,0.37037037 L145.956798,0.37037037 L153.27897,12.0144245 L160.676498,0.37037037 L163,0.37037037 Z" id="NATRIUM"/>
                </g>
            </g>
        </g>
    </g>
</svg>